<?xml version="1.0" encoding="UTF-8"?>
<svg id="a" data-name="Слой 1" xmlns="http://www.w3.org/2000/svg" xmlns:xlink="http://www.w3.org/1999/xlink" viewBox="0 0 118 48.52">
  <defs>
    <style>
      .v {
        fill: url(#j);
      }

      .w {
        fill: url(#p);
      }

      .x {
        fill: url(#m);
      }

      .y {
        fill: url(#r);
      }

      .z {
        fill: url(#h);
      }

      .aa {
        fill: url(#d);
        isolation: isolate;
      }

      .aa, .ab {
        opacity: .6;
      }

      .ac {
        fill: url(#t);
      }

      .ad {
        fill: url(#i);
      }

      .ae {
        fill: url(#l);
      }

      .af {
        fill: #ffce07;
      }

      .ag {
        fill: #161515;
      }

      .ah {
        fill: url(#s);
      }

      .ai {
        fill: url(#q);
      }

      .aj {
        fill: url(#f);
      }

      .ak {
        fill: url(#g);
      }

      .al {
        fill: url(#n);
      }

      .am {
        clip-path: url(#b);
      }

      .an {
        fill: #cb7529;
      }

      .ao {
        fill: url(#e);
      }

      .ap {
        fill: url(#o);
      }

      .aq {
        fill: none;
      }

      .ar {
        fill: url(#u);
      }

      .as {
        clip-path: url(#c);
      }

      .at {
        fill: url(#k);
      }
    </style>
    <clipPath id="b">
      <rect class="aq" width="118" height="48.52"/>
    </clipPath>
    <clipPath id="c">
      <rect class="aq" x="52.52" y="19.38" width="11.29" height="8.68"/>
    </clipPath>
    <linearGradient id="d" data-name="Безымянный градиент" x1="51.66" y1="27.54" x2="55.83" y2="25.15" gradientTransform="translate(0 49.05) scale(1 -1)" gradientUnits="userSpaceOnUse">
      <stop offset="0" stop-color="#fff"/>
      <stop offset="1" stop-color="#000"/>
    </linearGradient>
    <linearGradient id="e" data-name="Безымянный градиент 2" x1="142.69" y1="26.96" x2="181.16" y2="26.96" gradientTransform="translate(0 49.05) scale(1 -1)" gradientUnits="userSpaceOnUse">
      <stop offset="0" stop-color="#fff"/>
      <stop offset="1" stop-color="#000"/>
    </linearGradient>
    <linearGradient id="f" data-name="Безымянный градиент 3" x1="54.4" y1="27.28" x2="56.7" y2="26.65" gradientTransform="translate(0 49.05) scale(1 -1)" gradientUnits="userSpaceOnUse">
      <stop offset="0" stop-color="#fff"/>
      <stop offset="1" stop-color="#000"/>
    </linearGradient>
    <linearGradient id="g" data-name="Безымянный градиент 4" x1="326.48" y1="27.32" x2="486.15" y2="27.32" gradientTransform="translate(0 49.05) scale(1 -1)" gradientUnits="userSpaceOnUse">
      <stop offset="0" stop-color="#fff"/>
      <stop offset="1" stop-color="#000"/>
    </linearGradient>
    <linearGradient id="h" data-name="Безымянный градиент 5" x1="55.43" y1="28.33" x2="59.38" y2="26.28" gradientTransform="translate(0 49.05) scale(1 -1)" gradientUnits="userSpaceOnUse">
      <stop offset="0" stop-color="#fff"/>
      <stop offset="1" stop-color="#000"/>
    </linearGradient>
    <linearGradient id="i" data-name="Безымянный градиент 6" x1="524.76" y1="27.05" x2="698.13" y2="27.05" gradientTransform="translate(0 49.05) scale(1 -1)" gradientUnits="userSpaceOnUse">
      <stop offset="0" stop-color="#fff"/>
      <stop offset="1" stop-color="#000"/>
    </linearGradient>
    <linearGradient id="j" data-name="Безымянный градиент 7" x1="57.92" y1="28.3" x2="62.05" y2="26.02" gradientTransform="translate(0 49.05) scale(1 -1)" gradientUnits="userSpaceOnUse">
      <stop offset="0" stop-color="#fff"/>
      <stop offset="1" stop-color="#000"/>
    </linearGradient>
    <linearGradient id="k" data-name="Безымянный градиент 8" x1="826.57" y1="26.59" x2="1070.4" y2="26.59" gradientTransform="translate(0 49.05) scale(1 -1)" gradientUnits="userSpaceOnUse">
      <stop offset="0" stop-color="#fff"/>
      <stop offset="1" stop-color="#000"/>
    </linearGradient>
    <linearGradient id="l" data-name="Безымянный градиент 9" x1="60.31" y1="27.94" x2="64.64" y2="25.2" gradientTransform="translate(0 49.05) scale(1 -1)" gradientUnits="userSpaceOnUse">
      <stop offset="0" stop-color="#fff"/>
      <stop offset="1" stop-color="#000"/>
    </linearGradient>
    <linearGradient id="m" data-name="Безымянный градиент 10" x1="53.67" y1="28.76" x2="53.95" y2="25.32" gradientTransform="translate(0 49.05) scale(1 -1)" gradientUnits="userSpaceOnUse">
      <stop offset="0" stop-color="#f7d047"/>
      <stop offset="1" stop-color="#ffa800"/>
    </linearGradient>
    <linearGradient id="n" data-name="Безымянный градиент 11" x1="68.97" y1="-49.58" x2="112.49" y2="-299.2" gradientTransform="translate(0 49.05) scale(1 -1)" gradientUnits="userSpaceOnUse">
      <stop offset="0" stop-color="#fff"/>
      <stop offset="1" stop-color="#ffce07"/>
    </linearGradient>
    <linearGradient id="o" data-name="Безымянный градиент 12" x1="55.43" y1="29.06" x2="55.67" y2="26.01" gradientTransform="translate(0 49.05) scale(1 -1)" gradientUnits="userSpaceOnUse">
      <stop offset="0" stop-color="#f7d047"/>
      <stop offset="1" stop-color="#ffa800"/>
    </linearGradient>
    <linearGradient id="p" data-name="Безымянный градиент 13" x1="63.67" y1="-50.77" x2="84.15" y2="-305.15" gradientTransform="translate(0 49.05) scale(1 -1)" gradientUnits="userSpaceOnUse">
      <stop offset="0" stop-color="#fff"/>
      <stop offset="1" stop-color="#ffce07"/>
    </linearGradient>
    <linearGradient id="q" data-name="Безымянный градиент 14" x1="57.23" y1="29.31" x2="57.47" y2="26.3" gradientTransform="translate(0 49.05) scale(1 -1)" gradientUnits="userSpaceOnUse">
      <stop offset="0" stop-color="#f7d047"/>
      <stop offset="1" stop-color="#ffa800"/>
    </linearGradient>
    <linearGradient id="r" data-name="Безымянный градиент 15" x1="66.44" y1="-52.28" x2="87.82" y2="-310.93" gradientTransform="translate(0 49.05) scale(1 -1)" gradientUnits="userSpaceOnUse">
      <stop offset="0" stop-color="#fff"/>
      <stop offset="1" stop-color="#ffce07"/>
    </linearGradient>
    <linearGradient id="s" data-name="Безымянный градиент 16" x1="59.72" y1="29.12" x2="59.96" y2="26.07" gradientTransform="translate(0 49.05) scale(1 -1)" gradientUnits="userSpaceOnUse">
      <stop offset="0" stop-color="#f7d047"/>
      <stop offset="1" stop-color="#ffa800"/>
    </linearGradient>
    <linearGradient id="t" data-name="Безымянный градиент 17" x1="68.97" y1="-60.75" x2="90.16" y2="-345.54" gradientTransform="translate(0 49.05) scale(1 -1)" gradientUnits="userSpaceOnUse">
      <stop offset="0" stop-color="#fff"/>
      <stop offset="1" stop-color="#ffce07"/>
    </linearGradient>
    <linearGradient id="u" data-name="Безымянный градиент 18" x1="62.29" y1="28.91" x2="62.55" y2="25.55" gradientTransform="translate(0 49.05) scale(1 -1)" gradientUnits="userSpaceOnUse">
      <stop offset="0" stop-color="#f7d047"/>
      <stop offset="1" stop-color="#ffa800"/>
    </linearGradient>
  </defs>
  <g class="am">
    <g>
      <g class="as">
        <g>
          <path class="an" d="M54.97,22.67c.09,.44,.08,.83-.03,1.19-.1,.33-.27,.56-.5,.69-.1,.06-.23,.11-.37,.17l-.19,.07-.19,.07-.57,.21-.6-4.37,.78-.34c.17-.07,.34-.11,.51-.13,.2-.03,.36,0,.49,.07,.33,.17,.4,.61,.2,1.33-.02,.09-.05,.17-.08,.24,.27,.07,.46,.33,.55,.8Zm-1.41-.58c.08-.03,.15-.1,.2-.21,.02-.04,.04-.09,.05-.14,0-.05,.01-.11,0-.16,0-.05-.01-.1-.03-.14-.02-.04-.04-.08-.07-.09-.07-.06-.15-.07-.26-.03l.11,.78Zm.56,1.63c.03-.05,.05-.1,.07-.17,.02-.07,.02-.14,0-.21-.03-.14-.1-.24-.22-.27-.05-.02-.1-.02-.15,0-.04,0-.08,0-.13,.02l.12,.82s.03,0,.08,0c.02,0,.04,0,.06-.02,.02,0,.03,0,.03-.02,.04-.02,.08-.05,.12-.1v-.03Zm1.16,.54l-.27-4.21,.9-.16,.18,4.21-.81,.16Zm3.2-.26l-2.12,.06v-.34l.79-2.31-.88,.14v-1.35s2.15-.83,2.15-.83v.34l-.67,2.7,.71-.09,.02,1.68Zm2.34,.29l-2.1-.37v-.34l.93-2.1-.87-.06v-1.61l2.24-.14v.34l-.82,2.55,.71,.06-.08,1.67Zm1.32,.5c-.17-.05-.34-.17-.49-.35-.14-.16-.26-.37-.35-.63-.1-.26-.16-.55-.19-.86-.03-.31-.02-.62,.02-.93,.04-.32,.12-.62,.23-.88,.16-.4,.38-.71,.63-.89,.25-.19,.52-.24,.78-.16,.17,.05,.34,.17,.49,.35,.14,.16,.26,.37,.36,.63,.09,.26,.15,.54,.18,.83,.03,.32,.02,.64-.02,.95-.04,.32-.12,.62-.23,.88-.1,.26-.24,.49-.39,.66-.31,.37-.67,.52-1.03,.4Zm-.2-2.49c-.02,.12-.02,.25,0,.37,0,.12,.04,.24,.07,.34,.04,.1,.09,.2,.15,.26,.06,.07,.12,.11,.19,.13,.14,.05,.29,0,.41-.15,.06-.07,.11-.15,.15-.26,.04-.1,.07-.22,.09-.35,.02-.12,.02-.25,0-.37-.01-.12-.04-.24-.08-.34-.04-.11-.09-.2-.15-.26-.06-.07-.12-.11-.19-.13-.14-.04-.29,0-.41,.15-.12,.13-.2,.35-.24,.6Z"/>
          <g class="ab">
            <path class="aa" d="M54.97,22.67c.09,.44,.08,.83-.03,1.19-.1,.33-.27,.56-.5,.69-.1,.06-.23,.11-.37,.17l-.19,.07-.19,.07-.57,.21-.6-4.37,.78-.34c.17-.07,.34-.11,.51-.13,.2-.03,.36,0,.49,.07,.33,.17,.4,.61,.2,1.33-.02,.09-.05,.17-.08,.24,.27,.07,.46,.33,.55,.8Zm-1.41-.58c.08-.03,.15-.1,.2-.21,.02-.04,.04-.09,.05-.14,0-.05,.01-.11,0-.16,0-.05-.01-.1-.03-.14-.02-.04-.04-.08-.07-.09-.07-.06-.15-.07-.26-.03l.11,.78Zm.56,1.63c.03-.05,.05-.1,.07-.17,.02-.07,.02-.14,0-.21-.03-.14-.1-.24-.22-.27-.05-.02-.1-.02-.15,0-.04,0-.08,0-.13,.02l.12,.82s.03,0,.08,0c.02,0,.04,0,.06-.02,.02,0,.03,0,.03-.02,.04-.02,.08-.05,.12-.1v-.03Z"/>
            <g class="ab">
              <path class="ao" d="M55.26,24.27l-.27-4.21,.9-.16,.18,4.21-.81,.16Z"/>
              <path class="aj" d="M55.26,24.27l-.27-4.21,.9-.16,.18,4.21-.81,.16Z"/>
            </g>
            <g class="ab">
              <path class="ak" d="M58.46,24.01l-2.12,.06v-.34l.79-2.31-.88,.14,.13-1.13-.14-.71,2.15-.35v.34l-.67,2.7,.71-.09,.02,1.68Z"/>
              <path class="z" d="M58.46,24.01l-2.12,.06v-.34l.79-2.31-.88,.14,.13-1.13-.14-.71,2.15-.35v.34l-.67,2.7,.71-.09,.02,1.68Z"/>
            </g>
            <g class="ab">
              <path class="ad" d="M60.81,24.3l-2.1-.37v-.34l.93-2.1-.87-.06v-1.61l2.24-.14v.34l-.82,2.55,.71,.06-.08,1.67Z"/>
              <path class="v" d="M60.81,24.3l-2.1-.37v-.34l.93-2.1-.87-.06v-1.61l2.24-.14v.34l-.82,2.55,.71,.06-.08,1.67Z"/>
            </g>
            <g class="ab">
              <path class="at" d="M62.13,24.8c-.17-.05-.34-.17-.49-.35-.14-.16-.26-.37-.35-.63-.1-.26-.16-.55-.19-.86-.03-.31-.02-.62,.02-.93,.04-.32,.12-.62,.23-.88,.16-.4,.38-.71,.63-.89,.25-.19,.52-.24,.78-.16,.17,.05,.34,.17,.49,.35,.14,.16,.26,.37,.36,.63,.09,.26,.15,.54,.18,.83,.03,.32,.02,.64-.02,.95-.04,.32-.12,.62-.23,.88-.1,.26-.24,.49-.39,.66-.31,.37-.67,.52-1.03,.4Zm-.2-2.49c-.02,.12-.02,.25,0,.37,0,.12,.04,.24,.07,.34,.04,.1,.09,.2,.15,.26,.06,.07,.12,.11,.19,.13,.14,.05,.29,0,.41-.15,.06-.07,.11-.15,.15-.26,.04-.1,.07-.22,.09-.35,.02-.12,.02-.25,0-.37-.01-.12-.04-.24-.08-.34-.04-.11-.09-.2-.15-.26-.06-.07-.12-.11-.19-.13-.14-.04-.29,0-.41,.15-.12,.13-.2,.35-.24,.6Z"/>
              <path class="ae" d="M62.13,24.8c-.17-.05-.34-.17-.49-.35-.14-.16-.26-.37-.35-.63-.1-.26-.16-.55-.19-.86-.03-.31-.02-.62,.02-.93,.04-.32,.12-.62,.23-.88,.16-.4,.38-.71,.63-.89,.25-.19,.52-.24,.78-.16,.17,.05,.34,.17,.49,.35,.14,.16,.26,.37,.36,.63,.09,.26,.15,.54,.18,.83,.03,.32,.02,.64-.02,.95-.04,.32-.12,.62-.23,.88-.1,.26-.24,.49-.39,.66-.31,.37-.67,.52-1.03,.4Zm-.2-2.49c-.02,.12-.02,.25,0,.37,0,.12,.04,.24,.07,.34,.04,.1,.09,.2,.15,.26,.06,.07,.12,.11,.19,.13,.14,.05,.29,0,.41-.15,.06-.07,.11-.15,.15-.26,.04-.1,.07-.22,.09-.35,.02-.12,.02-.25,0-.37-.01-.12-.04-.24-.08-.34-.04-.11-.09-.2-.15-.26-.06-.07-.12-.11-.19-.13-.14-.04-.29,0-.41,.15-.12,.13-.2,.35-.24,.6Z"/>
            </g>
          </g>
          <path class="ag" d="M55.85,27.64c-.14,.2-.32,.3-.49,.26-.09-.02-.17-.07-.25-.14-.07-.08-.14-.18-.2-.3-.05-.12-.1-.26-.12-.4-.03-.15-.04-.32-.03-.47,0-.16,.04-.31,.08-.45,.04-.14,.1-.26,.16-.35,.14-.2,.31-.29,.49-.26,.15,.03,.29,.15,.4,.35l-.16,.49c-.05-.07-.1-.11-.16-.12-.08-.02-.15,.02-.21,.1-.03,.03-.05,.09-.07,.14-.02,.06-.03,.12-.03,.19,0,.07,0,.14,.01,.2s.03,.12,.05,.17c.05,.1,.11,.16,.19,.19,.07,.02,.15,0,.21-.08l.14,.49Zm.44,.37l-.43-.27,.63-2.33,.72,2.23-.32,.39-.1-.37-.42-.02-.07,.37Zm.35-.88l-.1-.37-.07,.36h.17Zm1.22-1.54l-.1,.53c-.1-.07-.17-.06-.2,.03-.04,.1,0,.23,.1,.37,.05,.06,.1,.12,.15,.17l.02,.02,.02,.02s.02,.03,.03,.03c.02,.03,.04,.04,.05,.05,.06,.09,.11,.2,.13,.35,.02,.14,.01,.29-.02,.42-.03,.14-.08,.25-.14,.33-.07,.09-.16,.15-.25,.16-.07,0-.14,0-.2-.03-.07-.03-.14-.07-.2-.12l.16-.52c.04,.06,.09,.09,.14,.09,.04,0,.06-.05,.05-.14,0-.06-.02-.11-.05-.15-.03-.05-.07-.09-.11-.13l-.03-.03-.03-.03s-.05-.05-.07-.07c-.11-.13-.19-.29-.21-.48-.02-.16,0-.33,.03-.49,.04-.14,.1-.26,.19-.33,.11-.1,.23-.14,.36-.12,.05,0,.12,.03,.18,.08Zm.27,2.3v-2.3s.43,.02,.43,.02l-.03,2.28h-.4Zm.54,.09v-2.16s.71,.78,.71,.78l-.03-.95,.49-.05,.04,2.35-.76-.66v.68s-.45,0-.45,0Zm1.85,0c-.09,0-.17-.06-.25-.13-.07-.07-.14-.17-.19-.29-.05-.12-.09-.26-.11-.41-.02-.14-.03-.31,0-.46,.01-.16,.05-.32,.1-.46,.07-.21,.17-.38,.29-.49,.12-.11,.25-.16,.39-.14,.09,0,.17,.06,.25,.14,.07,.07,.14,.17,.19,.29,.05,.12,.09,.26,.11,.4,.02,.15,.03,.32,.01,.47-.01,.16-.05,.32-.09,.46-.05,.14-.11,.26-.18,.36-.14,.2-.32,.3-.5,.27Zm-.15-1.23c0,.06,0,.12,0,.19,0,.06,.02,.12,.05,.16,.02,.05,.05,.09,.08,.12,.03,.03,.06,.04,.1,.05,.07,0,.15-.03,.2-.11,.03-.03,.05-.09,.07-.14s.03-.12,.04-.18c0-.06,0-.13,0-.19s-.02-.12-.05-.16c-.02-.05-.05-.09-.08-.12-.03-.03-.06-.04-.1-.05-.07,0-.15,.03-.2,.11-.06,.08-.1,.2-.11,.32Z"/>
          <path class="af" d="M54.97,22.33c.09,.44,.08,.83-.03,1.19-.1,.33-.27,.56-.5,.69-.1,.06-.23,.11-.37,.17l-.19,.07-.19,.07-.57,.21-.6-4.37,.78-.34c.17-.07,.34-.11,.51-.13,.2-.03,.36,0,.49,.07,.33,.17,.4,.61,.2,1.33-.02,.09-.05,.17-.08,.24,.27,.08,.46,.34,.55,.8Zm-1.41-.57c.08-.03,.15-.1,.2-.21,.02-.04,.04-.09,.05-.14,0-.05,.01-.11,0-.16,0-.05-.01-.1-.03-.14-.02-.04-.04-.08-.07-.09-.07-.06-.15-.07-.26-.03l.11,.78Zm.56,1.63c.03-.05,.05-.1,.07-.17,.02-.07,.02-.14,0-.21-.03-.14-.1-.24-.22-.27-.05-.02-.1-.02-.15,0-.04,0-.08,0-.13,.02,.08,.54,.12,.81,.12,.81,0,0,.03,0,.08,0,.02,0,.04,0,.06-.02,0,0,.02,0,.03-.02,.04-.02,.08-.05,.12-.1v-.02Zm1.17,.62l-.28-4.28,.89-.15,.19,4.27-.8,.16Zm3.2-.33l-2.12,.06,.79-2.64-.88,.14-.09-1.6,2.24-.26-.67,2.7,.71-.09,.02,1.68Zm2.34,.29l-2.1-.37,.94-2.46-.88-.03v-1.62l2.24,.2-.82,2.55,.71,.06-.08,1.67Zm1.32,.5c-.17-.05-.34-.17-.49-.35-.14-.16-.26-.37-.35-.63-.1-.26-.16-.55-.19-.86-.03-.31-.02-.62,.02-.93,.04-.32,.12-.62,.23-.88,.1-.26,.24-.49,.38-.66,.31-.37,.67-.51,1.03-.39,.17,.05,.34,.17,.49,.35,.14,.16,.26,.38,.35,.63,.09,.26,.15,.54,.18,.83,.03,.32,.02,.64-.02,.95-.04,.32-.12,.62-.23,.88-.1,.26-.24,.49-.39,.66-.3,.39-.66,.53-1.02,.41Zm-.2-2.49c-.02,.12-.02,.25,0,.37,0,.12,.04,.24,.07,.34,.04,.1,.09,.2,.15,.26,.06,.07,.12,.11,.19,.13,.14,.04,.29,0,.41-.16,.06-.07,.11-.15,.15-.26,.04-.1,.07-.22,.09-.35,.02-.12,.02-.25,0-.37-.01-.12-.04-.24-.08-.34-.04-.11-.09-.2-.15-.26-.06-.07-.12-.11-.19-.13-.14-.04-.29,0-.41,.15-.12,.14-.2,.36-.24,.61Z"/>
          <path class="x" d="M54.97,22.33c.09,.44,.08,.83-.03,1.19-.1,.33-.27,.56-.5,.69-.1,.06-.23,.11-.37,.17l-.19,.07-.19,.07-.57,.21-.6-4.37,.78-.34c.17-.07,.34-.11,.51-.13,.2-.03,.36,0,.49,.07,.33,.17,.4,.61,.2,1.33-.02,.09-.05,.17-.08,.24,.27,.08,.46,.34,.55,.8Zm-1.41-.57c.08-.03,.15-.1,.2-.21,.02-.04,.04-.09,.05-.14,0-.05,.01-.11,0-.16,0-.05-.01-.1-.03-.14-.02-.04-.04-.08-.07-.09-.07-.06-.15-.07-.26-.03l.11,.78Zm.56,1.63c.03-.05,.05-.1,.07-.17,.02-.07,.02-.14,0-.21-.03-.14-.1-.24-.22-.27-.05-.02-.1-.02-.15,0-.04,0-.08,0-.13,.02,.08,.54,.12,.81,.12,.81,0,0,.03,0,.08,0,.02,0,.04,0,.06-.02,0,0,.02,0,.03-.02,.04-.02,.08-.05,.12-.1v-.02Z"/>
          <path class="al" d="M55.27,24l-.28-4.28,.89-.15,.19,4.27-.8,.16Z"/>
          <path class="ap" d="M55.27,24l-.28-4.28,.89-.15,.19,4.27-.8,.16Z"/>
          <path class="w" d="M58.46,23.67l-2.12,.06,.79-2.64-.88,.14-.09-1.6,2.24-.26-.67,2.7,.71-.09,.02,1.68Z"/>
          <path class="ai" d="M58.46,23.67l-2.12,.06,.79-2.64-.88,.14-.09-1.6,2.24-.26-.67,2.7,.71-.09,.02,1.68Z"/>
          <path class="y" d="M60.81,23.96l-2.1-.37,.94-2.46-.88-.03v-1.62l2.24,.2-.82,2.55,.71,.06-.08,1.67Z"/>
          <path class="ah" d="M60.81,23.96l-2.1-.37,.94-2.46-.88-.03v-1.62l2.24,.2-.82,2.55,.71,.06-.08,1.67Z"/>
          <path class="ac" d="M62.13,24.46c-.17-.05-.34-.17-.49-.35-.14-.16-.26-.37-.35-.63-.1-.26-.16-.55-.19-.86-.03-.31-.02-.62,.02-.93,.04-.32,.12-.62,.23-.88,.1-.26,.24-.49,.38-.66,.31-.37,.67-.51,1.03-.39,.17,.05,.34,.17,.49,.35,.14,.16,.26,.38,.35,.63,.09,.26,.15,.54,.18,.83,.03,.32,.02,.64-.02,.95-.04,.32-.12,.62-.23,.88-.1,.26-.24,.49-.39,.66-.3,.39-.66,.53-1.02,.41Zm-.2-2.49c-.02,.12-.02,.25,0,.37,0,.12,.04,.24,.07,.34,.04,.1,.09,.2,.15,.26,.06,.07,.12,.11,.19,.13,.14,.04,.29,0,.41-.16,.06-.07,.11-.15,.15-.26,.04-.1,.07-.22,.09-.35,.02-.12,.02-.25,0-.37-.01-.12-.04-.24-.08-.34-.04-.11-.09-.2-.15-.26-.06-.07-.12-.11-.19-.13-.14-.04-.29,0-.41,.15-.12,.14-.2,.36-.24,.61Z"/>
          <path class="ar" d="M62.13,24.46c-.17-.05-.34-.17-.49-.35-.14-.16-.26-.37-.35-.63-.1-.26-.16-.55-.19-.86-.03-.31-.02-.62,.02-.93,.04-.32,.12-.62,.23-.88,.1-.26,.24-.49,.38-.66,.31-.37,.67-.51,1.03-.39,.17,.05,.34,.17,.49,.35,.14,.16,.26,.38,.35,.63,.09,.26,.15,.54,.18,.83,.03,.32,.02,.64-.02,.95-.04,.32-.12,.62-.23,.88-.1,.26-.24,.49-.39,.66-.3,.39-.66,.53-1.02,.41Zm-.2-2.49c-.02,.12-.02,.25,0,.37,0,.12,.04,.24,.07,.34,.04,.1,.09,.2,.15,.26,.06,.07,.12,.11,.19,.13,.14,.04,.29,0,.41-.16,.06-.07,.11-.15,.15-.26,.04-.1,.07-.22,.09-.35,.02-.12,.02-.25,0-.37-.01-.12-.04-.24-.08-.34-.04-.11-.09-.2-.15-.26-.06-.07-.12-.11-.19-.13-.14-.04-.29,0-.41,.15-.12,.14-.2,.36-.24,.61Z"/>
          <path class="ag" d="M61.97,25.96l.11,.41s0,0,0,0h0l.24,.07h0v.02s0,0,0,0l-.17,.32s0,0,0,0h0s.04,.46,.04,.46h0s0,.02,0,.02h0l-.21-.21h0l-.21,.21h-.01v-.02l.04-.45h0s0-.02,0-.02l-.17-.32h0v-.02s0,0,0,0h0l.24-.07h0s0,0,0,0l.11-.41s0,0,0,0h0s0,0,0,0Zm-7.98,0l.11,.41s0,0,0,0h0l.24,.07s0,0,0,0h0v.02s0,0,0,0l-.17,.32s0,0,0,0h0s.04,.46,.04,.46h0s0,.02,0,.02h0l-.21-.21h0l-.21,.21h-.01v-.02l.04-.45h0s0-.02,0-.02l-.17-.32s0,0,0,0h0s0-.02,0-.02h0l.24-.07h0s0,0,0,0l.11-.41s0,0,0,0h0s0,0,0,0Z"/>
        </g>
      </g>
      <path class="aq" d="M50.14,15.52h16V31.52h-16V15.52Z"/>
    </g>
  </g>
</svg>